<svg width="1000" height="1000" viewBox="0 0 1000 1000" fill="none" xmlns="http://www.w3.org/2000/svg">
<g clip-path="url(#clip0_428_24)">
<g clip-path="url(#clip1_428_24)">
<rect width="1000" height="1000" fill="#4178BE"/>
<mask id="mask0_428_24" style="mask-type:luminance" maskUnits="userSpaceOnUse" x="0" y="0" width="1000" height="1000">
<path d="M650 0H350C156.7 0 0 156.7 0 350V650C0 843.3 156.7 1000 350 1000H650C843.3 1000 1000 843.3 1000 650V350C1000 156.7 843.3 0 650 0Z" fill="white"/>
</mask>
<g mask="url(#mask0_428_24)">
<path d="M1000 0H0V1000H1000V0Z" fill="#285DA2"/>
<g clip-path="url(#clip2_428_24)">
<g clip-path="url(#clip3_428_24)">
<path d="M709.809 187.5C773.943 187.502 793.69 205.033 834.075 259.674C851.575 283.341 901.409 291.034 905.915 291.687V291.748C901.603 291.95 855.9 294.494 834.075 311.798C811.162 329.969 802.003 359.897 802.003 416.016C802.003 472.141 783.75 573.525 733.856 628.509C704.5 660.856 652.768 693.988 615.171 715.791C589.49 730.691 577.131 761.828 587.281 789.734L599.546 823.456C600.515 826.128 598.546 828.947 595.703 828.95C594.346 828.95 593.078 828.269 592.315 827.15L540.709 751.497C536.134 744.781 528.54 740.756 520.415 740.753C511.481 740.753 505.525 749.984 509.215 758.119L538.94 823.488C540.096 826.047 538.212 828.95 535.399 828.95C534.143 828.947 532.981 828.328 532.256 827.3L457.215 720.703L324.921 704.681C281.996 707.631 201.965 770.513 172.149 795.134C164.589 801.378 155.16 804.9 145.355 804.9C126.734 804.9 117.934 781.928 131.775 769.469L232.055 679.231C239.342 672.672 234.687 660.584 224.884 660.584C215.038 660.578 210.302 648.488 217.681 641.969C283.389 583.903 483.337 407.266 533.387 363.891C573.475 329.15 579 341.172 593.537 291.748C608.075 242.315 645.662 187.5 709.809 187.5ZM684.54 450.531C679.665 435.45 660.906 444.138 658.965 459.869C647.365 553.909 528.393 610.563 422.728 634.459C407.115 637.994 405.99 656.319 421.965 657.319C519.028 663.388 631.746 603.575 661.681 560.334C686.196 524.919 695.931 485.803 684.54 450.531ZM741.881 239.624C724.168 239.624 709.809 253.985 709.809 271.698C709.809 289.409 724.171 303.772 741.881 303.772C759.587 303.765 773.953 289.405 773.956 271.698C773.956 253.989 759.59 239.631 741.881 239.624Z" fill="white"/>
<path d="M905.916 291.748L906.135 296.441L906.45 296.405L905.916 291.748ZM457.216 720.703L461.047 718.006L459.847 716.3L457.778 716.05L457.216 720.703ZM324.922 704.681L325.485 700.028L325.044 699.975L324.6 700.006L324.922 704.681ZM709.81 187.5V192.188C741.469 192.188 761.428 196.523 778.369 207.076C795.516 217.757 810.075 235.09 830.307 262.46L834.075 259.674L837.847 256.888C817.688 229.617 802.185 210.865 783.325 199.119C764.266 187.245 742.285 182.813 709.81 182.812V187.5ZM834.075 259.674L830.307 262.46C839.994 275.562 858.094 283.768 873.413 288.767C888.988 293.849 902.869 295.982 905.241 296.326L905.916 291.687L906.588 287.048C904.457 286.739 891.169 284.699 876.322 279.855C861.225 274.928 845.66 267.453 837.847 256.888L834.075 259.674ZM905.916 291.687L905.241 296.326C900.016 295.569 899.788 287.733 905.378 287.091L905.916 291.748L906.45 296.405C912.113 295.754 911.885 287.816 906.588 287.048L905.916 291.687ZM905.916 291.748L905.697 287.066C903.428 287.172 890.678 287.873 875.678 290.757C860.869 293.603 843.019 298.726 831.163 308.125L834.075 311.798L836.988 315.472C846.96 307.566 862.875 302.764 877.447 299.963C891.835 297.198 904.091 296.537 906.135 296.441L905.916 291.748ZM834.075 311.798L831.163 308.125C806.435 327.734 797.316 359.681 797.316 416.016H802.003H806.691C806.691 360.113 815.891 332.203 836.988 315.472L834.075 311.798ZM802.003 416.016H797.316C797.316 443.65 792.81 482.609 782.122 521.447C771.413 560.344 754.632 598.637 730.385 625.359L733.857 628.509L737.328 631.659C762.975 603.397 780.266 563.509 791.16 523.934C802.069 484.303 806.691 444.506 806.691 416.016H802.003ZM733.857 628.509L730.385 625.359C701.572 657.109 650.428 689.928 612.822 711.734L615.172 715.791L617.525 719.844C655.113 698.047 707.428 664.603 737.328 631.659L733.857 628.509ZM615.172 715.791L612.822 711.734C585.3 727.703 571.903 761.163 582.875 791.334L587.282 789.734L591.685 788.131C582.363 762.494 593.682 733.678 617.525 719.844L615.172 715.791ZM587.282 789.734L582.875 791.334L595.144 825.059L599.547 823.456L603.957 821.859L591.685 788.131L587.282 789.734ZM599.547 823.456L595.144 825.059C595.01 824.684 595.285 824.262 595.703 824.262V828.95V833.637C601.807 833.634 606.028 827.578 603.957 821.859L599.547 823.456ZM595.703 828.95V824.262C595.922 824.262 596.094 824.366 596.188 824.509L592.316 827.15L588.444 829.787C590.066 832.169 592.775 833.637 595.703 833.637V828.95ZM592.316 827.15L596.188 824.509L544.585 748.853L540.71 751.497L536.838 754.138L588.444 829.787L592.316 827.15ZM540.71 751.497L544.585 748.853C539.138 740.863 530.097 736.069 520.416 736.066V740.753V745.441C526.985 745.441 533.132 748.7 536.838 754.138L540.71 751.497ZM520.416 740.753V736.066C508.082 736.066 499.847 748.812 504.947 760.053L509.216 758.119L513.485 756.181C511.207 751.156 514.885 745.441 520.416 745.441V740.753ZM509.216 758.119L504.947 760.053L534.672 825.428L538.941 823.488L543.213 821.559L513.485 756.181L509.216 758.119ZM538.941 823.488L534.672 825.428C534.419 824.866 534.828 824.262 535.4 824.262V828.95L535.391 833.637C541.585 833.637 545.778 827.241 543.213 821.559L538.941 823.488ZM535.4 828.95V824.262C535.7 824.262 535.957 824.412 536.088 824.6L532.257 827.3L528.425 830C530.007 832.237 532.582 833.631 535.391 833.637L535.4 828.95ZM532.257 827.3L536.088 824.6L461.047 718.006L457.216 720.703L453.382 723.4L528.425 830L532.257 827.3ZM457.216 720.703L457.778 716.05L325.485 700.028L324.922 704.681L324.357 709.334L456.65 725.356L457.216 720.703ZM324.922 704.681L324.6 700.006C312.982 700.803 299.292 705.591 285.113 712.369C270.846 719.187 255.691 728.216 241.042 737.866C211.738 757.169 184.128 779.166 169.165 791.522L172.15 795.134L175.135 798.75C189.988 786.484 217.302 764.728 246.198 745.697C260.649 736.178 275.413 727.394 289.156 720.825C302.987 714.213 315.4 710.034 325.241 709.359L324.922 704.681ZM172.15 795.134L169.165 791.522C162.412 797.097 154.029 800.212 145.355 800.212L145.356 804.9V809.587C156.292 809.587 166.767 805.659 175.135 798.75L172.15 795.134ZM145.356 804.9L145.355 800.212C131.039 800.212 124.258 782.544 134.911 772.953L131.775 769.469L128.64 765.984C111.612 781.306 122.431 809.587 145.356 809.587V804.9ZM131.775 769.469L134.911 772.953L235.192 682.716L232.056 679.231L228.92 675.747L128.64 765.984L131.775 769.469ZM232.056 679.231L235.192 682.716C245.684 673.275 238.968 655.897 224.884 655.897V660.584L224.881 665.272C230.405 665.272 233.002 672.072 228.92 675.747L232.056 679.231ZM224.884 660.584V655.897C219.191 655.894 216.763 649.034 220.786 645.481L217.682 641.969L214.578 638.456C203.842 647.944 210.885 665.262 224.881 665.272L224.884 660.584ZM217.682 641.969L220.786 645.481C286.507 587.403 486.432 410.791 536.457 367.434L533.388 363.891L530.316 360.35C480.247 403.744 280.273 580.403 214.578 638.456L217.682 641.969ZM533.388 363.891L536.457 367.434C546.325 358.881 554.053 353.216 560.366 348.734C566.582 344.322 571.825 340.794 576.21 336.781C585.419 328.35 590.722 317.925 598.035 293.071L593.538 291.748L589.041 290.425C581.813 314.997 577.085 323.269 569.878 329.869C566.05 333.372 561.491 336.441 554.941 341.091C548.488 345.672 540.494 351.528 530.316 360.35L533.388 363.891ZM593.538 291.748L598.035 293.071C612.375 244.315 648.85 192.188 709.81 192.188V187.5V182.812C642.475 182.812 603.778 240.315 589.041 290.425L593.538 291.748ZM684.541 450.531L689 449.091C687.46 444.322 684.582 440.809 680.607 439.106C676.716 437.441 672.519 437.825 668.888 439.303C661.725 442.216 655.485 449.794 654.313 459.297L658.966 459.869L663.619 460.444C664.388 454.216 668.497 449.581 672.419 447.987C674.328 447.212 675.857 447.272 676.916 447.725C677.888 448.141 679.185 449.2 680.078 451.972L684.541 450.531ZM658.966 459.869L654.313 459.297C648.753 504.369 617.403 541.003 573.566 569.541C529.778 598.047 474.191 618.016 421.697 629.888L422.728 634.459L423.763 639.031C476.935 627.006 533.666 606.703 578.678 577.397C623.644 548.125 657.578 509.412 663.619 460.444L658.966 459.869ZM422.728 634.459L421.697 629.888C412.203 632.038 406.169 639.012 405.819 646.625C405.644 650.422 406.944 654.219 409.822 657.122C412.688 660.013 416.785 661.691 421.675 661.997L421.966 657.319L422.26 652.641C419.16 652.447 417.407 651.456 416.478 650.522C415.563 649.597 415.122 648.403 415.185 647.053C415.31 644.369 417.647 640.416 423.763 639.031L422.728 634.459ZM421.966 657.319L421.675 661.997C471.188 665.094 524.4 651.397 568.903 631.6C613.25 611.869 649.844 585.669 665.538 563L661.682 560.334L657.828 557.666C643.585 578.238 608.853 603.566 565.091 623.034C521.485 642.434 469.81 655.613 422.26 652.641L421.966 657.319ZM661.682 560.334L665.538 563C690.591 526.809 700.975 486.175 689 449.091L684.541 450.531L680.078 451.972C690.885 485.428 681.807 523.028 657.828 557.666L661.682 560.334ZM741.882 239.624L741.885 234.937C721.585 234.937 705.122 251.396 705.122 271.698H709.81H714.497C714.497 256.574 726.76 244.312 741.882 244.312V239.624ZM709.81 271.698H705.122C705.125 291.997 721.582 308.459 741.882 308.459V303.772V299.084C726.76 299.084 714.497 286.822 714.497 271.698H709.81ZM741.882 303.772V308.459C762.172 308.452 778.641 291.995 778.644 271.699L773.957 271.698L769.269 271.697C769.266 286.815 757 299.079 741.882 299.084V303.772ZM773.957 271.698L778.644 271.699C778.644 251.399 762.178 234.944 741.885 234.937L741.882 239.624V244.312C757.003 244.317 769.269 256.579 769.269 271.697L773.957 271.698Z" fill="white"/>
<rect width="1000" height="1000" fill="#4178BE"/>
</g>
</g>
</g>
</g>
<g clip-path="url(#clip4_428_24)">
<g clip-path="url(#clip5_428_24)">
<path d="M709.809 187.5C773.943 187.502 793.69 205.033 834.075 259.674C851.575 283.341 901.409 291.034 905.915 291.687V291.748C901.603 291.95 855.9 294.494 834.075 311.798C811.162 329.969 802.003 359.897 802.003 416.016C802.003 472.141 783.75 573.525 733.856 628.509C704.5 660.856 652.768 693.988 615.171 715.791C589.49 730.691 577.131 761.828 587.281 789.734L599.546 823.456C600.515 826.128 598.546 828.947 595.703 828.95C594.346 828.95 593.078 828.269 592.315 827.15L540.709 751.497C536.134 744.781 528.54 740.756 520.415 740.753C511.481 740.753 505.525 749.984 509.215 758.119L538.94 823.488C540.096 826.047 538.212 828.95 535.399 828.95C534.143 828.947 532.981 828.328 532.256 827.3L457.215 720.703L324.921 704.681C281.996 707.631 201.965 770.513 172.149 795.134C164.589 801.378 155.16 804.9 145.355 804.9C126.734 804.9 117.934 781.928 131.775 769.469L232.055 679.231C239.342 672.672 234.687 660.584 224.884 660.584C215.038 660.578 210.302 648.488 217.681 641.969C283.389 583.903 483.337 407.266 533.387 363.891C573.475 329.15 579 341.172 593.537 291.748C608.075 242.315 645.662 187.5 709.809 187.5ZM684.54 450.531C679.665 435.45 660.906 444.138 658.965 459.869C647.365 553.909 528.393 610.563 422.728 634.459C407.115 637.994 405.99 656.319 421.965 657.319C519.028 663.388 631.746 603.575 661.681 560.334C686.196 524.919 695.931 485.803 684.54 450.531ZM741.881 239.624C724.168 239.624 709.809 253.985 709.809 271.698C709.809 289.409 724.171 303.772 741.881 303.772C759.587 303.765 773.953 289.405 773.956 271.698C773.956 253.989 759.59 239.631 741.881 239.624Z" fill="white"/>
<path d="M905.916 291.748L906.135 296.441L906.45 296.405L905.916 291.748ZM457.216 720.703L461.047 718.006L459.847 716.3L457.778 716.05L457.216 720.703ZM324.922 704.681L325.485 700.028L325.044 699.975L324.6 700.006L324.922 704.681ZM709.81 187.5V192.188C741.469 192.188 761.428 196.523 778.369 207.076C795.516 217.757 810.075 235.09 830.307 262.46L834.075 259.674L837.847 256.888C817.688 229.617 802.185 210.865 783.325 199.119C764.266 187.245 742.285 182.813 709.81 182.812V187.5ZM834.075 259.674L830.307 262.46C839.994 275.562 858.094 283.768 873.413 288.767C888.988 293.849 902.869 295.982 905.241 296.326L905.916 291.687L906.588 287.048C904.457 286.739 891.169 284.699 876.322 279.855C861.225 274.928 845.66 267.453 837.847 256.888L834.075 259.674ZM905.916 291.687L905.241 296.326C900.016 295.569 899.788 287.733 905.378 287.091L905.916 291.748L906.45 296.405C912.113 295.754 911.885 287.816 906.588 287.048L905.916 291.687ZM905.916 291.748L905.697 287.066C903.428 287.172 890.678 287.873 875.678 290.757C860.869 293.603 843.019 298.726 831.163 308.125L834.075 311.798L836.988 315.472C846.96 307.566 862.875 302.764 877.447 299.963C891.835 297.198 904.091 296.537 906.135 296.441L905.916 291.748ZM834.075 311.798L831.163 308.125C806.435 327.734 797.316 359.681 797.316 416.016H802.003H806.691C806.691 360.113 815.891 332.203 836.988 315.472L834.075 311.798ZM802.003 416.016H797.316C797.316 443.65 792.81 482.609 782.122 521.447C771.413 560.344 754.632 598.637 730.385 625.359L733.857 628.509L737.328 631.659C762.975 603.397 780.266 563.509 791.16 523.934C802.069 484.303 806.691 444.506 806.691 416.016H802.003ZM733.857 628.509L730.385 625.359C701.572 657.109 650.428 689.928 612.822 711.734L615.172 715.791L617.525 719.844C655.113 698.047 707.428 664.603 737.328 631.659L733.857 628.509ZM615.172 715.791L612.822 711.734C585.3 727.703 571.903 761.163 582.875 791.334L587.282 789.734L591.685 788.131C582.363 762.494 593.682 733.678 617.525 719.844L615.172 715.791ZM587.282 789.734L582.875 791.334L595.144 825.059L599.547 823.456L603.957 821.859L591.685 788.131L587.282 789.734ZM599.547 823.456L595.144 825.059C595.01 824.684 595.285 824.262 595.703 824.262V828.95V833.637C601.807 833.634 606.028 827.578 603.957 821.859L599.547 823.456ZM595.703 828.95V824.262C595.922 824.262 596.094 824.366 596.188 824.509L592.316 827.15L588.444 829.787C590.066 832.169 592.775 833.637 595.703 833.637V828.95ZM592.316 827.15L596.188 824.509L544.585 748.853L540.71 751.497L536.838 754.138L588.444 829.787L592.316 827.15ZM540.71 751.497L544.585 748.853C539.138 740.863 530.097 736.069 520.416 736.066V740.753V745.441C526.985 745.441 533.132 748.7 536.838 754.138L540.71 751.497ZM520.416 740.753V736.066C508.082 736.066 499.847 748.812 504.947 760.053L509.216 758.119L513.485 756.181C511.207 751.156 514.885 745.441 520.416 745.441V740.753ZM509.216 758.119L504.947 760.053L534.672 825.428L538.941 823.488L543.213 821.559L513.485 756.181L509.216 758.119ZM538.941 823.488L534.672 825.428C534.419 824.866 534.828 824.262 535.4 824.262V828.95L535.391 833.637C541.585 833.637 545.778 827.241 543.213 821.559L538.941 823.488ZM535.4 828.95V824.262C535.7 824.262 535.957 824.412 536.088 824.6L532.257 827.3L528.425 830C530.007 832.237 532.582 833.631 535.391 833.637L535.4 828.95ZM532.257 827.3L536.088 824.6L461.047 718.006L457.216 720.703L453.382 723.4L528.425 830L532.257 827.3ZM457.216 720.703L457.778 716.05L325.485 700.028L324.922 704.681L324.357 709.334L456.65 725.356L457.216 720.703ZM324.922 704.681L324.6 700.006C312.982 700.803 299.292 705.591 285.113 712.369C270.846 719.187 255.691 728.216 241.042 737.866C211.738 757.169 184.128 779.166 169.165 791.522L172.15 795.134L175.135 798.75C189.988 786.484 217.302 764.728 246.198 745.697C260.649 736.178 275.413 727.394 289.156 720.825C302.987 714.213 315.4 710.034 325.241 709.359L324.922 704.681ZM172.15 795.134L169.165 791.522C162.412 797.097 154.029 800.212 145.355 800.212L145.356 804.9V809.587C156.292 809.587 166.767 805.659 175.135 798.75L172.15 795.134ZM145.356 804.9L145.355 800.212C131.039 800.212 124.258 782.544 134.911 772.953L131.775 769.469L128.64 765.984C111.612 781.306 122.431 809.587 145.356 809.587V804.9ZM131.775 769.469L134.911 772.953L235.192 682.716L232.056 679.231L228.92 675.747L128.64 765.984L131.775 769.469ZM232.056 679.231L235.192 682.716C245.684 673.275 238.968 655.897 224.884 655.897V660.584L224.881 665.272C230.405 665.272 233.002 672.072 228.92 675.747L232.056 679.231ZM224.884 660.584V655.897C219.191 655.894 216.763 649.034 220.786 645.481L217.682 641.969L214.578 638.456C203.842 647.944 210.885 665.262 224.881 665.272L224.884 660.584ZM217.682 641.969L220.786 645.481C286.507 587.403 486.432 410.791 536.457 367.434L533.388 363.891L530.316 360.35C480.247 403.744 280.273 580.403 214.578 638.456L217.682 641.969ZM533.388 363.891L536.457 367.434C546.325 358.881 554.053 353.216 560.366 348.734C566.582 344.322 571.825 340.794 576.21 336.781C585.419 328.35 590.722 317.925 598.035 293.071L593.538 291.748L589.041 290.425C581.813 314.997 577.085 323.269 569.878 329.869C566.05 333.372 561.491 336.441 554.941 341.091C548.488 345.672 540.494 351.528 530.316 360.35L533.388 363.891ZM593.538 291.748L598.035 293.071C612.375 244.315 648.85 192.188 709.81 192.188V187.5V182.812C642.475 182.812 603.778 240.315 589.041 290.425L593.538 291.748ZM684.541 450.531L689 449.091C687.46 444.322 684.582 440.809 680.607 439.106C676.716 437.441 672.519 437.825 668.888 439.303C661.725 442.216 655.485 449.794 654.313 459.297L658.966 459.869L663.619 460.444C664.388 454.216 668.497 449.581 672.419 447.987C674.328 447.212 675.857 447.272 676.916 447.725C677.888 448.141 679.185 449.2 680.078 451.972L684.541 450.531ZM658.966 459.869L654.313 459.297C648.753 504.369 617.403 541.003 573.566 569.541C529.778 598.047 474.191 618.016 421.697 629.888L422.728 634.459L423.763 639.031C476.935 627.006 533.666 606.703 578.678 577.397C623.644 548.125 657.578 509.412 663.619 460.444L658.966 459.869ZM422.728 634.459L421.697 629.888C412.203 632.038 406.169 639.012 405.819 646.625C405.644 650.422 406.944 654.219 409.822 657.122C412.688 660.013 416.785 661.691 421.675 661.997L421.966 657.319L422.26 652.641C419.16 652.447 417.407 651.456 416.478 650.522C415.563 649.597 415.122 648.403 415.185 647.053C415.31 644.369 417.647 640.416 423.763 639.031L422.728 634.459ZM421.966 657.319L421.675 661.997C471.188 665.094 524.4 651.397 568.903 631.6C613.25 611.869 649.844 585.669 665.538 563L661.682 560.334L657.828 557.666C643.585 578.238 608.853 603.566 565.091 623.034C521.485 642.434 469.81 655.613 422.26 652.641L421.966 657.319ZM661.682 560.334L665.538 563C690.591 526.809 700.975 486.175 689 449.091L684.541 450.531L680.078 451.972C690.885 485.428 681.807 523.028 657.828 557.666L661.682 560.334ZM741.882 239.624L741.885 234.937C721.585 234.937 705.122 251.396 705.122 271.698H709.81H714.497C714.497 256.574 726.76 244.312 741.882 244.312V239.624ZM709.81 271.698H705.122C705.125 291.997 721.582 308.459 741.882 308.459V303.772V299.084C726.76 299.084 714.497 286.822 714.497 271.698H709.81ZM741.882 303.772V308.459C762.172 308.452 778.641 291.995 778.644 271.699L773.957 271.698L769.269 271.697C769.266 286.815 757 299.079 741.882 299.084V303.772ZM773.957 271.698L778.644 271.699C778.644 251.399 762.178 234.944 741.885 234.937L741.882 239.624V244.312C757.003 244.317 769.269 256.579 769.269 271.697L773.957 271.698Z" fill="white"/>
</g>
</g>
</g>
<defs>
<clipPath id="clip0_428_24">
<rect width="1000" height="1000" fill="white"/>
</clipPath>
<clipPath id="clip1_428_24">
<rect width="1000" height="1000" fill="white"/>
</clipPath>
<clipPath id="clip2_428_24">
<rect width="1000" height="1000" fill="white"/>
</clipPath>
<clipPath id="clip3_428_24">
<rect width="1000" height="1000" fill="white"/>
</clipPath>
<clipPath id="clip4_428_24">
<rect width="1000" height="1000" fill="white"/>
</clipPath>
<clipPath id="clip5_428_24">
<rect width="1000" height="1000" fill="white"/>
</clipPath>
</defs>
</svg>
