<svg width="1001" height="1013" viewBox="0 0 1001 1013" fill="none" xmlns="http://www.w3.org/2000/svg">
<rect width="1000.38" height="1011.38" transform="translate(0 1)" fill="black"/>
<rect width="857" height="456" transform="translate(75 276)" fill="white"/>
<path d="M461.695 2.45365C378.255 9.1182 296.814 37.1093 226.57 83.3613C154.193 130.946 92.8789 200.391 53.4247 279.033C-1.75776 389.131 -14.8203 518.823 17.1696 638.785C47.5599 752.749 117.538 853.384 214.307 921.895C280.553 968.947 360.527 999.471 443.701 1009.6C470.626 1012.8 530.074 1012.8 556.998 1009.6C667.63 996.138 767.198 948.82 846.107 872.044C914.485 805.532 960.47 726.89 984.196 636.119C996.192 590.267 1000.06 558.411 1000.06 506.827C1000.06 478.036 999.525 463.241 997.792 448.845C983.263 330.216 932.479 226.383 848.639 144.142C808.519 104.688 771.997 78.5628 721.746 53.3708C641.771 13.2502 550.334 -4.61078 461.695 2.45365ZM823.98 363.939C829.978 366.471 837.976 375.802 839.042 381.533C841.175 393.396 837.176 403.926 827.846 410.324C821.181 414.856 806.253 414.989 799.855 410.458C789.991 403.393 785.992 393.396 788.125 381.533C789.191 375.935 797.056 366.605 802.92 364.072C808.119 361.806 818.515 361.806 823.98 363.939ZM904.888 398.861V428.852H916.884H928.88V446.18V463.507H916.884H904.888V527.487V591.467H884.228H863.568V527.487V463.507H852.904H842.241V446.18V428.852H852.904H863.568V398.861V368.871H884.228H904.888V398.861ZM190.848 426.986C206.976 430.584 218.972 437.116 230.569 448.712C247.097 465.24 255.761 487.1 255.761 512.159V522.155H190.448C134.066 522.155 125.135 522.422 125.135 524.155C125.135 525.221 126.335 529.353 127.934 533.352C131 541.749 139.531 551.213 147.262 555.212C164.589 564.009 188.449 561.476 204.444 549.347L210.575 544.548L216.84 547.214C220.305 548.814 228.169 552.279 234.167 555.078L245.364 560.277L240.432 566.141C224.304 585.602 201.111 595.465 171.521 595.465C145.396 595.332 124.735 587.335 108.341 570.673C91.9459 554.145 85.0147 536.284 85.0147 510.826C85.0147 493.498 87.1474 484.434 94.4784 469.372C105.275 447.379 128.867 429.785 153.126 425.786C161.524 424.32 182.051 424.986 190.848 426.986ZM362.793 426.852C372.923 429.518 382.92 434.583 390.784 441.114L397.049 446.313V437.649V428.852H417.709H438.369V510.159V591.467H417.709H397.049V583.469C397.049 579.071 396.649 575.472 396.249 575.472C395.849 575.472 393.184 577.471 390.251 579.87C378.255 590.134 363.326 595.465 346.398 595.465C325.605 595.465 309.877 588.534 293.615 572.273C276.154 554.812 269.09 536.951 269.09 510.026C269.09 483.368 276.421 464.307 293.082 447.379C303.612 436.583 314.009 430.318 326.805 426.852C336.002 424.453 353.33 424.32 362.793 426.852ZM539.67 426.586C542.203 427.519 544.336 428.718 544.336 429.518C544.336 430.185 541.67 438.182 538.338 447.246C533.672 459.908 531.94 463.374 530.34 462.708C519.277 457.909 513.812 459.242 506.881 468.439C499.95 477.636 499.417 482.035 498.75 539.083L498.084 591.467H477.557H457.03V510.159V428.852H475.024H493.019V437.782V446.846L495.551 442.714C499.017 436.982 508.48 429.252 514.878 426.986C521.543 424.586 533.406 424.453 539.67 426.586ZM659.899 427.652C674.028 432.317 686.557 443.114 691.489 454.71C696.421 466.173 696.954 472.971 696.954 532.819V591.467H676.427H655.767L655.367 537.75C654.834 478.036 654.701 476.97 645.504 468.972C634.84 459.509 619.645 460.308 607.782 470.972C594.853 482.568 592.987 492.831 592.987 552.412V591.467H572.327H551.667V510.159V428.852H572.327H592.987V436.849V444.713L603.65 437.516C609.515 433.517 618.046 429.118 622.578 427.652C634.041 424.053 649.236 424.053 659.899 427.652ZM834.244 510.159V591.467H813.584H792.923V510.159V428.852H813.584H834.244V510.159Z" fill="black"/>
<path d="M160.324 460.841C147.394 463.374 135.265 472.704 129.134 484.834L126.468 490.165H170.454H214.44L212.441 485.367C204.71 466.84 182.717 456.443 160.324 460.841Z" fill="black"/>
<path d="M343.333 463.507C331.07 466.706 319.607 476.436 314.009 488.566C311.476 493.898 311.076 497.23 311.076 510.159C311.076 524.288 311.343 526.021 314.808 532.552C320.14 542.549 326.805 549.48 335.468 553.745C342 556.944 344.532 557.477 354.396 557.344C363.193 557.344 367.058 556.544 371.857 554.278C381.72 549.613 388.518 542.949 393.317 533.085C397.449 524.821 397.715 523.355 397.715 510.159C397.715 497.763 397.315 495.23 394.25 488.699C386.785 472.704 374.389 464.04 357.461 462.974C352.53 462.574 346.132 462.841 343.333 463.507Z" fill="black"/>
</svg>
