<svg xmlns="http://www.w3.org/2000/svg" version="1.1" xmlns:xlink="http://www.w3.org/1999/xlink" width="1000" height="1000"><style>
    #light-icon {
      display: inline;
    }
    #dark-icon {
      display: none;
    }

    @media (prefers-color-scheme: dark) {
      #light-icon {
        display: none;
      }
      #dark-icon {
        display: inline;
      }
    }
  </style><g id="light-icon"><svg xmlns="http://www.w3.org/2000/svg" version="1.1" xmlns:xlink="http://www.w3.org/1999/xlink" width="1000" height="1000"><g><g transform="matrix(31.25,0,0,31.25,0,0)"><svg xmlns="http://www.w3.org/2000/svg" version="1.1" xmlns:xlink="http://www.w3.org/1999/xlink" width="32" height="32"><svg width="32" height="32" viewBox="0 0 32 32" fill="none" xmlns="http://www.w3.org/2000/svg">
<path d="M22.7139 6C24.7662 6.00006 25.3981 6.56107 26.6904 8.30957C27.2504 9.06692 28.8451 9.3131 28.9893 9.33398C28.9904 9.33416 28.9904 9.33581 28.9893 9.33594C28.8513 9.34239 27.3888 9.42381 26.6904 9.97754C25.9572 10.559 25.6641 11.5167 25.6641 13.3125C25.6641 15.1085 25.08 18.3528 23.4834 20.1123C22.544 21.1474 20.8886 22.2076 19.6855 22.9053C18.8637 23.3821 18.4682 24.3785 18.793 25.2715L19.1855 26.3506C19.2165 26.4361 19.1535 26.5263 19.0625 26.5264C19.0191 26.5264 18.9785 26.5046 18.9541 26.4688L17.3027 24.0479C17.1563 23.833 16.9133 23.7042 16.6533 23.7041C16.3674 23.7041 16.1768 23.9995 16.2949 24.2598L17.2461 26.3516C17.2831 26.4335 17.2228 26.5264 17.1328 26.5264C17.0926 26.5263 17.0554 26.5065 17.0322 26.4736L14.6309 23.0625L10.3975 22.5498C9.02389 22.6442 6.46291 24.6564 5.50879 25.4443C5.26685 25.6441 4.96514 25.7568 4.65137 25.7568C4.05551 25.7568 3.7739 25.0217 4.2168 24.623L7.42578 21.7354C7.65897 21.5255 7.51001 21.1387 7.19629 21.1387C6.88124 21.1385 6.72968 20.7516 6.96582 20.543C9.06847 18.6849 15.4668 13.0325 17.0684 11.6445C18.3512 10.5328 18.528 10.9175 18.9932 9.33594C19.4584 7.75407 20.6612 6 22.7139 6ZM21.9053 14.417C21.7493 13.9344 21.149 14.2124 21.0869 14.7158C20.7157 17.7251 16.9086 19.538 13.5273 20.3027C13.0277 20.4158 12.9917 21.0022 13.5029 21.0342C16.6089 21.2284 20.2159 19.3144 21.1738 17.9307C21.9583 16.7974 22.2698 15.5457 21.9053 14.417ZM23.7402 7.66797C23.1734 7.66797 22.7139 8.12752 22.7139 8.69434C22.7139 9.26108 23.1735 9.7207 23.7402 9.7207C24.3068 9.72049 24.7665 9.26095 24.7666 8.69434C24.7666 8.12765 24.3069 7.66818 23.7402 7.66797Z" fill="#003D5F"></path>
<path d="M22.7139 6L22.7139 5.85H22.7139V6ZM26.6904 8.30957L26.5698 8.39873L26.5698 8.39875L26.6904 8.30957ZM28.9893 9.33398L28.9677 9.48243L28.9678 9.48243L28.9893 9.33398ZM28.9893 9.33594L28.9963 9.48612L29.0064 9.48496L28.9893 9.33594ZM26.6904 9.97754L26.5972 9.86L26.5972 9.86001L26.6904 9.97754ZM25.6641 13.3125L25.5141 13.3125V13.3125H25.6641ZM23.4834 20.1123L23.5945 20.2131L23.5945 20.2131L23.4834 20.1123ZM19.6855 22.9053L19.6103 22.7755L19.6103 22.7755L19.6855 22.9053ZM18.793 25.2715L18.652 25.3227L18.652 25.3228L18.793 25.2715ZM19.1855 26.3506L19.3266 26.2995L19.3265 26.2993L19.1855 26.3506ZM19.0625 26.5264L19.0625 26.6764L19.0625 26.6764L19.0625 26.5264ZM18.9541 26.4688L19.078 26.3843L19.078 26.3842L18.9541 26.4688ZM17.3027 24.0479L17.1788 24.1324L17.1788 24.1324L17.3027 24.0479ZM16.6533 23.7041L16.6533 23.5541H16.6533V23.7041ZM16.2949 24.2598L16.1583 24.3217L16.1584 24.3219L16.2949 24.2598ZM17.2461 26.3516L17.3828 26.2899L17.3826 26.2895L17.2461 26.3516ZM17.1328 26.5264L17.1325 26.6764H17.1328V26.5264ZM17.0322 26.4736L16.9096 26.56L16.9096 26.5601L17.0322 26.4736ZM14.6309 23.0625L14.7535 22.9762L14.7151 22.9216L14.6489 22.9136L14.6309 23.0625ZM10.3975 22.5498L10.4155 22.4009L10.4014 22.3992L10.3872 22.4002L10.3975 22.5498ZM5.50879 25.4443L5.6043 25.56L5.6043 25.56L5.50879 25.4443ZM4.65137 25.7568L4.65137 25.9068L4.65138 25.9068L4.65137 25.7568ZM4.2168 24.623L4.11646 24.5115L4.11645 24.5116L4.2168 24.623ZM7.42578 21.7354L7.52612 21.8469L7.52613 21.8468L7.42578 21.7354ZM7.19629 21.1387L7.19619 21.2887H7.19629V21.1387ZM6.96582 20.543L7.06515 20.6554L7.06515 20.6554L6.96582 20.543ZM17.0684 11.6445L16.9701 11.5312L16.9701 11.5312L17.0684 11.6445ZM18.9932 9.33594L19.1371 9.37827L19.1371 9.37826L18.9932 9.33594ZM21.9053 14.417L22.048 14.3709L22.048 14.3709L21.9053 14.417ZM21.0869 14.7158L21.2358 14.7342L21.2358 14.7342L21.0869 14.7158ZM13.5273 20.3027L13.4943 20.1564L13.4942 20.1564L13.5273 20.3027ZM13.5029 21.0342L13.4936 21.1839L13.4936 21.1839L13.5029 21.0342ZM21.1738 17.9307L21.2972 18.016L21.2972 18.016L21.1738 17.9307ZM23.7402 7.66797L23.7403 7.51797H23.7402V7.66797ZM22.7139 8.69434L22.5639 8.69434L22.5639 8.69436L22.7139 8.69434ZM23.7402 9.7207L23.7402 9.8707L23.7403 9.8707L23.7402 9.7207ZM24.7666 8.69434L24.9166 8.69436V8.69434H24.7666ZM22.7139 6L22.7139 6.15C23.727 6.15003 24.3657 6.28875 24.9078 6.62644C25.4565 6.96821 25.9224 7.52288 26.5698 8.39873L26.6904 8.30957L26.8111 8.22041C26.166 7.34775 25.6699 6.74768 25.0664 6.3718C24.4565 5.99185 23.7531 5.85003 22.7139 5.85L22.7139 6ZM26.6904 8.30957L26.5698 8.39875C26.8798 8.81801 27.459 9.08057 27.9492 9.24055C28.4476 9.40318 28.8918 9.47143 28.9677 9.48243L28.9893 9.33398L29.0108 9.18553C28.9426 9.17566 28.5174 9.11038 28.0423 8.95535C27.5592 8.79768 27.061 8.55848 26.811 8.22039L26.6904 8.30957ZM28.9893 9.33398L28.9678 9.48243C28.8006 9.45821 28.7932 9.20747 28.9721 9.18692L28.9893 9.33594L29.0064 9.48496C29.1876 9.46414 29.1803 9.2101 29.0108 9.18553L28.9893 9.33398ZM28.9893 9.33594L28.9823 9.1861C28.9097 9.18949 28.5017 9.21194 28.0217 9.30421C27.5478 9.39531 26.9766 9.55923 26.5972 9.86L26.6904 9.97754L26.7836 10.0951C27.1027 9.84212 27.612 9.68846 28.0783 9.59881C28.5387 9.51032 28.9309 9.48883 28.9963 9.48577L28.9893 9.33594ZM26.6904 9.97754L26.5972 9.86001C25.8059 10.4875 25.5141 11.5098 25.5141 13.3125L25.6641 13.3125L25.8141 13.3125C25.8141 11.5236 26.1085 10.6305 26.7836 10.0951L26.6904 9.97754ZM25.6641 13.3125H25.5141C25.5141 14.1968 25.3699 15.4435 25.0279 16.6863C24.6852 17.931 24.1482 19.1564 23.3723 20.0115L23.4834 20.1123L23.5945 20.2131C24.4152 19.3087 24.9685 18.0323 25.3171 16.7659C25.6662 15.4977 25.8141 14.2242 25.8141 13.3125H25.6641ZM23.4834 20.1123L23.3723 20.0115C22.4503 21.0275 20.8137 22.0777 19.6103 22.7755L19.6855 22.9053L19.7608 23.035C20.9636 22.3375 22.6377 21.2673 23.5945 20.2131L23.4834 20.1123ZM19.6855 22.9053L19.6103 22.7755C18.7296 23.2865 18.3009 24.3572 18.652 25.3227L18.793 25.2715L18.9339 25.2202C18.6356 24.3998 18.9978 23.4777 19.7608 23.035L19.6855 22.9053ZM18.793 25.2715L18.652 25.3228L19.0446 26.4019L19.1855 26.3506L19.3265 26.2993L18.9339 25.2202L18.793 25.2715ZM19.1855 26.3506L19.0445 26.4017C19.0402 26.3897 19.0491 26.3764 19.0625 26.3764L19.0625 26.5264L19.0625 26.6764C19.2578 26.6763 19.3929 26.4825 19.3266 26.2995L19.1855 26.3506ZM19.0625 26.5264V26.3764C19.0695 26.3764 19.075 26.3797 19.078 26.3843L18.9541 26.4688L18.8302 26.5532C18.8821 26.6294 18.9688 26.6764 19.0625 26.6764V26.5264ZM18.9541 26.4688L19.078 26.3842L17.4267 23.9633L17.3027 24.0479L17.1788 24.1324L18.8302 26.5533L18.9541 26.4688ZM17.3027 24.0479L17.4267 23.9634C17.2524 23.7077 16.9631 23.5542 16.6533 23.5541L16.6533 23.7041L16.6533 23.8541C16.8635 23.8541 17.0602 23.9584 17.1788 24.1324L17.3027 24.0479ZM16.6533 23.7041V23.5541C16.2586 23.5541 15.9951 23.962 16.1583 24.3217L16.2949 24.2598L16.4315 24.1978C16.3586 24.037 16.4763 23.8541 16.6533 23.8541V23.7041ZM16.2949 24.2598L16.1584 24.3219L17.1095 26.4137L17.2461 26.3516L17.3826 26.2895L16.4315 24.1977L16.2949 24.2598ZM17.2461 26.3516L17.1094 26.4133C17.1013 26.3953 17.1145 26.3764 17.1328 26.3764V26.5264V26.6764C17.331 26.6764 17.4649 26.4717 17.3828 26.2899L17.2461 26.3516ZM17.1328 26.5264L17.1331 26.3764C17.1427 26.3764 17.1506 26.3812 17.1548 26.3872L17.0322 26.4736L16.9096 26.5601C16.9602 26.6317 17.0426 26.6762 17.1325 26.6764L17.1328 26.5264ZM17.0322 26.4736L17.1549 26.3873L14.7535 22.9762L14.6309 23.0625L14.5082 23.1488L16.9096 26.56L17.0322 26.4736ZM14.6309 23.0625L14.6489 22.9136L10.4155 22.4009L10.3975 22.5498L10.3794 22.6987L14.6128 23.2114L14.6309 23.0625ZM10.3975 22.5498L10.3872 22.4002C10.0154 22.4257 9.57734 22.5789 9.12361 22.7958C8.66707 23.014 8.18211 23.3029 7.71332 23.6117C6.7756 24.2294 5.89209 24.9333 5.41328 25.3287L5.50879 25.4443L5.6043 25.56C6.0796 25.1675 6.95365 24.4713 7.87834 23.8623C8.34075 23.5577 8.81322 23.2766 9.25299 23.0664C9.69558 22.8548 10.0928 22.7211 10.4077 22.6995L10.3975 22.5498ZM5.50879 25.4443L5.41328 25.3287C5.19716 25.5071 4.92892 25.6068 4.65136 25.6068L4.65137 25.7568L4.65138 25.9068C5.00135 25.9068 5.33654 25.7811 5.6043 25.56L5.50879 25.4443ZM4.65137 25.7568V25.6068C4.19325 25.6068 3.97623 25.0414 4.31714 24.7345L4.2168 24.623L4.11645 24.5116C3.57157 25.0019 3.91778 25.9068 4.65137 25.9068V25.7568ZM4.2168 24.623L4.31713 24.7345L7.52612 21.8469L7.42578 21.7354L7.32544 21.6239L4.11646 24.5115L4.2168 24.623ZM7.42578 21.7354L7.52613 21.8468C7.86188 21.5447 7.64696 20.9887 7.19629 20.9887V21.1387V21.2887C7.37305 21.2887 7.45605 21.5063 7.32544 21.6239L7.42578 21.7354ZM7.19629 21.1387L7.19638 20.9887C7.01418 20.9886 6.93641 20.7691 7.06515 20.6554L6.96582 20.543L6.86649 20.4306C6.52295 20.7342 6.7483 21.2884 7.19619 21.2887L7.19629 21.1387ZM6.96582 20.543L7.06515 20.6554C9.16823 18.7969 15.5658 13.1453 17.1666 11.7579L17.0684 11.6445L16.9701 11.5312C15.3679 12.9198 8.96872 18.5729 6.86649 20.4306L6.96582 20.543ZM17.0684 11.6445L17.1666 11.7579C17.4824 11.4842 17.7297 11.3029 17.9317 11.1595C18.1306 11.0183 18.2984 10.9054 18.4387 10.777C18.7334 10.5072 18.9031 10.1736 19.1371 9.37827L18.9932 9.33594L18.8493 9.29361C18.618 10.0799 18.4667 10.3446 18.2361 10.5558C18.1136 10.6679 17.9677 10.7661 17.7581 10.9149C17.5516 11.0615 17.2958 11.2489 16.9701 11.5312L17.0684 11.6445ZM18.9932 9.33594L19.1371 9.37826C19.596 7.81806 20.7632 6.15 22.7139 6.15V6V5.85C20.5592 5.85 19.3209 7.69007 18.8493 9.29361L18.9932 9.33594ZM21.9053 14.417L22.048 14.3709C21.9987 14.2183 21.9066 14.1059 21.7794 14.0514C21.6549 13.9981 21.5206 14.0104 21.4044 14.0577C21.1752 14.1509 20.9755 14.3934 20.938 14.6975L21.0869 14.7158L21.2358 14.7342C21.2604 14.5349 21.3919 14.3866 21.5174 14.3356C21.5785 14.3108 21.6274 14.3127 21.6613 14.3272C21.6924 14.3405 21.7339 14.3744 21.7625 14.4631L21.9053 14.417ZM21.0869 14.7158L20.938 14.6975C20.7601 16.1398 19.7569 17.3121 18.3541 18.2253C16.9529 19.1375 15.1741 19.7765 13.4943 20.1564L13.5273 20.3027L13.5604 20.449C15.2619 20.0642 17.0773 19.4145 18.5177 18.4767C19.9566 17.54 21.0425 16.3012 21.2358 14.7342L21.0869 14.7158ZM13.5273 20.3027L13.4942 20.1564C13.1904 20.2252 12.9974 20.4484 12.9862 20.692C12.9806 20.8135 13.0222 20.935 13.1143 21.0279C13.206 21.1204 13.3371 21.1741 13.4936 21.1839L13.5029 21.0342L13.5123 20.8845C13.4131 20.8783 13.357 20.8466 13.3273 20.8167C13.298 20.7871 13.2839 20.7489 13.2859 20.7057C13.2899 20.6198 13.3647 20.4933 13.5604 20.449L13.5273 20.3027ZM13.5029 21.0342L13.4936 21.1839C15.078 21.283 16.7808 20.8447 18.2049 20.2112C19.624 19.5798 20.795 18.7414 21.2972 18.016L21.1738 17.9307L21.0505 17.8453C20.5947 18.5036 19.4833 19.3141 18.0829 19.9371C16.6875 20.5579 15.0339 20.9796 13.5123 20.8845L13.5029 21.0342ZM21.1738 17.9307L21.2972 18.016C22.0989 16.8579 22.4312 15.5576 22.048 14.3709L21.9053 14.417L21.7625 14.4631C22.1083 15.5337 21.8178 16.7369 21.0505 17.8453L21.1738 17.9307ZM23.7402 7.66797V7.51797C23.0906 7.51797 22.5639 8.04468 22.5639 8.69434H22.7139H22.8639C22.8639 8.21036 23.2563 7.81797 23.7402 7.81797V7.66797ZM22.7139 8.69434L22.5639 8.69436C22.564 9.34391 23.0906 9.8707 23.7402 9.8707V9.7207V9.5707C23.2563 9.5707 22.8639 9.17826 22.8639 8.69431L22.7139 8.69434ZM23.7402 9.7207L23.7403 9.8707C24.3896 9.87046 24.9165 9.34383 24.9166 8.69436L24.7666 8.69434L24.6166 8.69431C24.6165 9.17807 24.224 9.57052 23.7402 9.5707L23.7402 9.7207ZM24.7666 8.69434H24.9166C24.9166 8.04475 24.3897 7.51822 23.7403 7.51797L23.7402 7.66797L23.7402 7.81797C24.2241 7.81815 24.6166 8.21055 24.6166 8.69434H24.7666Z" fill="#003D5F"></path>
</svg></svg></g></g></svg></g><g id="dark-icon"><svg xmlns="http://www.w3.org/2000/svg" version="1.1" xmlns:xlink="http://www.w3.org/1999/xlink" width="1000" height="1000"><g clip-path="url(#SvgjsClipPath1194)"><rect width="1000" height="1000" fill="#ffffff"></rect><g transform="matrix(31.25,0,0,31.25,0,0)"><svg xmlns="http://www.w3.org/2000/svg" version="1.1" xmlns:xlink="http://www.w3.org/1999/xlink" width="32" height="32"><svg width="32" height="32" viewBox="0 0 32 32" fill="none" xmlns="http://www.w3.org/2000/svg">
<path d="M22.7139 6C24.7662 6.00006 25.3981 6.56107 26.6904 8.30957C27.2504 9.06692 28.8451 9.3131 28.9893 9.33398C28.9904 9.33416 28.9904 9.33581 28.9893 9.33594C28.8513 9.34239 27.3888 9.42381 26.6904 9.97754C25.9572 10.559 25.6641 11.5167 25.6641 13.3125C25.6641 15.1085 25.08 18.3528 23.4834 20.1123C22.544 21.1474 20.8886 22.2076 19.6855 22.9053C18.8637 23.3821 18.4682 24.3785 18.793 25.2715L19.1855 26.3506C19.2165 26.4361 19.1535 26.5263 19.0625 26.5264C19.0191 26.5264 18.9785 26.5046 18.9541 26.4688L17.3027 24.0479C17.1563 23.833 16.9133 23.7042 16.6533 23.7041C16.3674 23.7041 16.1768 23.9995 16.2949 24.2598L17.2461 26.3516C17.2831 26.4335 17.2228 26.5264 17.1328 26.5264C17.0926 26.5263 17.0554 26.5065 17.0322 26.4736L14.6309 23.0625L10.3975 22.5498C9.02389 22.6442 6.46291 24.6564 5.50879 25.4443C5.26685 25.6441 4.96514 25.7568 4.65137 25.7568C4.05551 25.7568 3.7739 25.0217 4.2168 24.623L7.42578 21.7354C7.65897 21.5255 7.51001 21.1387 7.19629 21.1387C6.88124 21.1385 6.72968 20.7516 6.96582 20.543C9.06847 18.6849 15.4668 13.0325 17.0684 11.6445C18.3512 10.5328 18.528 10.9175 18.9932 9.33594C19.4584 7.75407 20.6612 6 22.7139 6ZM21.9053 14.417C21.7493 13.9344 21.149 14.2124 21.0869 14.7158C20.7157 17.7251 16.9086 19.538 13.5273 20.3027C13.0277 20.4158 12.9917 21.0022 13.5029 21.0342C16.6089 21.2284 20.2159 19.3144 21.1738 17.9307C21.9583 16.7974 22.2698 15.5457 21.9053 14.417ZM23.7402 7.66797C23.1734 7.66797 22.7139 8.12752 22.7139 8.69434C22.7139 9.26108 23.1735 9.7207 23.7402 9.7207C24.3068 9.72049 24.7665 9.26095 24.7666 8.69434C24.7666 8.12765 24.3069 7.66818 23.7402 7.66797Z" fill="#003D5F"></path>
<path d="M22.7139 6L22.7139 5.85H22.7139V6ZM26.6904 8.30957L26.5698 8.39873L26.5698 8.39875L26.6904 8.30957ZM28.9893 9.33398L28.9677 9.48243L28.9678 9.48243L28.9893 9.33398ZM28.9893 9.33594L28.9963 9.48612L29.0064 9.48496L28.9893 9.33594ZM26.6904 9.97754L26.5972 9.86L26.5972 9.86001L26.6904 9.97754ZM25.6641 13.3125L25.5141 13.3125V13.3125H25.6641ZM23.4834 20.1123L23.5945 20.2131L23.5945 20.2131L23.4834 20.1123ZM19.6855 22.9053L19.6103 22.7755L19.6103 22.7755L19.6855 22.9053ZM18.793 25.2715L18.652 25.3227L18.652 25.3228L18.793 25.2715ZM19.1855 26.3506L19.3266 26.2995L19.3265 26.2993L19.1855 26.3506ZM19.0625 26.5264L19.0625 26.6764L19.0625 26.6764L19.0625 26.5264ZM18.9541 26.4688L19.078 26.3843L19.078 26.3842L18.9541 26.4688ZM17.3027 24.0479L17.1788 24.1324L17.1788 24.1324L17.3027 24.0479ZM16.6533 23.7041L16.6533 23.5541H16.6533V23.7041ZM16.2949 24.2598L16.1583 24.3217L16.1584 24.3219L16.2949 24.2598ZM17.2461 26.3516L17.3828 26.2899L17.3826 26.2895L17.2461 26.3516ZM17.1328 26.5264L17.1325 26.6764H17.1328V26.5264ZM17.0322 26.4736L16.9096 26.56L16.9096 26.5601L17.0322 26.4736ZM14.6309 23.0625L14.7535 22.9762L14.7151 22.9216L14.6489 22.9136L14.6309 23.0625ZM10.3975 22.5498L10.4155 22.4009L10.4014 22.3992L10.3872 22.4002L10.3975 22.5498ZM5.50879 25.4443L5.6043 25.56L5.6043 25.56L5.50879 25.4443ZM4.65137 25.7568L4.65137 25.9068L4.65138 25.9068L4.65137 25.7568ZM4.2168 24.623L4.11646 24.5115L4.11645 24.5116L4.2168 24.623ZM7.42578 21.7354L7.52612 21.8469L7.52613 21.8468L7.42578 21.7354ZM7.19629 21.1387L7.19619 21.2887H7.19629V21.1387ZM6.96582 20.543L7.06515 20.6554L7.06515 20.6554L6.96582 20.543ZM17.0684 11.6445L16.9701 11.5312L16.9701 11.5312L17.0684 11.6445ZM18.9932 9.33594L19.1371 9.37827L19.1371 9.37826L18.9932 9.33594ZM21.9053 14.417L22.048 14.3709L22.048 14.3709L21.9053 14.417ZM21.0869 14.7158L21.2358 14.7342L21.2358 14.7342L21.0869 14.7158ZM13.5273 20.3027L13.4943 20.1564L13.4942 20.1564L13.5273 20.3027ZM13.5029 21.0342L13.4936 21.1839L13.4936 21.1839L13.5029 21.0342ZM21.1738 17.9307L21.2972 18.016L21.2972 18.016L21.1738 17.9307ZM23.7402 7.66797L23.7403 7.51797H23.7402V7.66797ZM22.7139 8.69434L22.5639 8.69434L22.5639 8.69436L22.7139 8.69434ZM23.7402 9.7207L23.7402 9.8707L23.7403 9.8707L23.7402 9.7207ZM24.7666 8.69434L24.9166 8.69436V8.69434H24.7666ZM22.7139 6L22.7139 6.15C23.727 6.15003 24.3657 6.28875 24.9078 6.62644C25.4565 6.96821 25.9224 7.52288 26.5698 8.39873L26.6904 8.30957L26.8111 8.22041C26.166 7.34775 25.6699 6.74768 25.0664 6.3718C24.4565 5.99185 23.7531 5.85003 22.7139 5.85L22.7139 6ZM26.6904 8.30957L26.5698 8.39875C26.8798 8.81801 27.459 9.08057 27.9492 9.24055C28.4476 9.40318 28.8918 9.47143 28.9677 9.48243L28.9893 9.33398L29.0108 9.18553C28.9426 9.17566 28.5174 9.11038 28.0423 8.95535C27.5592 8.79768 27.061 8.55848 26.811 8.22039L26.6904 8.30957ZM28.9893 9.33398L28.9678 9.48243C28.8006 9.45821 28.7932 9.20747 28.9721 9.18692L28.9893 9.33594L29.0064 9.48496C29.1876 9.46414 29.1803 9.2101 29.0108 9.18553L28.9893 9.33398ZM28.9893 9.33594L28.9823 9.1861C28.9097 9.18949 28.5017 9.21194 28.0217 9.30421C27.5478 9.39531 26.9766 9.55923 26.5972 9.86L26.6904 9.97754L26.7836 10.0951C27.1027 9.84212 27.612 9.68846 28.0783 9.59881C28.5387 9.51032 28.9309 9.48883 28.9963 9.48577L28.9893 9.33594ZM26.6904 9.97754L26.5972 9.86001C25.8059 10.4875 25.5141 11.5098 25.5141 13.3125L25.6641 13.3125L25.8141 13.3125C25.8141 11.5236 26.1085 10.6305 26.7836 10.0951L26.6904 9.97754ZM25.6641 13.3125H25.5141C25.5141 14.1968 25.3699 15.4435 25.0279 16.6863C24.6852 17.931 24.1482 19.1564 23.3723 20.0115L23.4834 20.1123L23.5945 20.2131C24.4152 19.3087 24.9685 18.0323 25.3171 16.7659C25.6662 15.4977 25.8141 14.2242 25.8141 13.3125H25.6641ZM23.4834 20.1123L23.3723 20.0115C22.4503 21.0275 20.8137 22.0777 19.6103 22.7755L19.6855 22.9053L19.7608 23.035C20.9636 22.3375 22.6377 21.2673 23.5945 20.2131L23.4834 20.1123ZM19.6855 22.9053L19.6103 22.7755C18.7296 23.2865 18.3009 24.3572 18.652 25.3227L18.793 25.2715L18.9339 25.2202C18.6356 24.3998 18.9978 23.4777 19.7608 23.035L19.6855 22.9053ZM18.793 25.2715L18.652 25.3228L19.0446 26.4019L19.1855 26.3506L19.3265 26.2993L18.9339 25.2202L18.793 25.2715ZM19.1855 26.3506L19.0445 26.4017C19.0402 26.3897 19.0491 26.3764 19.0625 26.3764L19.0625 26.5264L19.0625 26.6764C19.2578 26.6763 19.3929 26.4825 19.3266 26.2995L19.1855 26.3506ZM19.0625 26.5264V26.3764C19.0695 26.3764 19.075 26.3797 19.078 26.3843L18.9541 26.4688L18.8302 26.5532C18.8821 26.6294 18.9688 26.6764 19.0625 26.6764V26.5264ZM18.9541 26.4688L19.078 26.3842L17.4267 23.9633L17.3027 24.0479L17.1788 24.1324L18.8302 26.5533L18.9541 26.4688ZM17.3027 24.0479L17.4267 23.9634C17.2524 23.7077 16.9631 23.5542 16.6533 23.5541L16.6533 23.7041L16.6533 23.8541C16.8635 23.8541 17.0602 23.9584 17.1788 24.1324L17.3027 24.0479ZM16.6533 23.7041V23.5541C16.2586 23.5541 15.9951 23.962 16.1583 24.3217L16.2949 24.2598L16.4315 24.1978C16.3586 24.037 16.4763 23.8541 16.6533 23.8541V23.7041ZM16.2949 24.2598L16.1584 24.3219L17.1095 26.4137L17.2461 26.3516L17.3826 26.2895L16.4315 24.1977L16.2949 24.2598ZM17.2461 26.3516L17.1094 26.4133C17.1013 26.3953 17.1145 26.3764 17.1328 26.3764V26.5264V26.6764C17.331 26.6764 17.4649 26.4717 17.3828 26.2899L17.2461 26.3516ZM17.1328 26.5264L17.1331 26.3764C17.1427 26.3764 17.1506 26.3812 17.1548 26.3872L17.0322 26.4736L16.9096 26.5601C16.9602 26.6317 17.0426 26.6762 17.1325 26.6764L17.1328 26.5264ZM17.0322 26.4736L17.1549 26.3873L14.7535 22.9762L14.6309 23.0625L14.5082 23.1488L16.9096 26.56L17.0322 26.4736ZM14.6309 23.0625L14.6489 22.9136L10.4155 22.4009L10.3975 22.5498L10.3794 22.6987L14.6128 23.2114L14.6309 23.0625ZM10.3975 22.5498L10.3872 22.4002C10.0154 22.4257 9.57734 22.5789 9.12361 22.7958C8.66707 23.014 8.18211 23.3029 7.71332 23.6117C6.7756 24.2294 5.89209 24.9333 5.41328 25.3287L5.50879 25.4443L5.6043 25.56C6.0796 25.1675 6.95365 24.4713 7.87834 23.8623C8.34075 23.5577 8.81322 23.2766 9.25299 23.0664C9.69558 22.8548 10.0928 22.7211 10.4077 22.6995L10.3975 22.5498ZM5.50879 25.4443L5.41328 25.3287C5.19716 25.5071 4.92892 25.6068 4.65136 25.6068L4.65137 25.7568L4.65138 25.9068C5.00135 25.9068 5.33654 25.7811 5.6043 25.56L5.50879 25.4443ZM4.65137 25.7568V25.6068C4.19325 25.6068 3.97623 25.0414 4.31714 24.7345L4.2168 24.623L4.11645 24.5116C3.57157 25.0019 3.91778 25.9068 4.65137 25.9068V25.7568ZM4.2168 24.623L4.31713 24.7345L7.52612 21.8469L7.42578 21.7354L7.32544 21.6239L4.11646 24.5115L4.2168 24.623ZM7.42578 21.7354L7.52613 21.8468C7.86188 21.5447 7.64696 20.9887 7.19629 20.9887V21.1387V21.2887C7.37305 21.2887 7.45605 21.5063 7.32544 21.6239L7.42578 21.7354ZM7.19629 21.1387L7.19638 20.9887C7.01418 20.9886 6.93641 20.7691 7.06515 20.6554L6.96582 20.543L6.86649 20.4306C6.52295 20.7342 6.7483 21.2884 7.19619 21.2887L7.19629 21.1387ZM6.96582 20.543L7.06515 20.6554C9.16823 18.7969 15.5658 13.1453 17.1666 11.7579L17.0684 11.6445L16.9701 11.5312C15.3679 12.9198 8.96872 18.5729 6.86649 20.4306L6.96582 20.543ZM17.0684 11.6445L17.1666 11.7579C17.4824 11.4842 17.7297 11.3029 17.9317 11.1595C18.1306 11.0183 18.2984 10.9054 18.4387 10.777C18.7334 10.5072 18.9031 10.1736 19.1371 9.37827L18.9932 9.33594L18.8493 9.29361C18.618 10.0799 18.4667 10.3446 18.2361 10.5558C18.1136 10.6679 17.9677 10.7661 17.7581 10.9149C17.5516 11.0615 17.2958 11.2489 16.9701 11.5312L17.0684 11.6445ZM18.9932 9.33594L19.1371 9.37826C19.596 7.81806 20.7632 6.15 22.7139 6.15V6V5.85C20.5592 5.85 19.3209 7.69007 18.8493 9.29361L18.9932 9.33594ZM21.9053 14.417L22.048 14.3709C21.9987 14.2183 21.9066 14.1059 21.7794 14.0514C21.6549 13.9981 21.5206 14.0104 21.4044 14.0577C21.1752 14.1509 20.9755 14.3934 20.938 14.6975L21.0869 14.7158L21.2358 14.7342C21.2604 14.5349 21.3919 14.3866 21.5174 14.3356C21.5785 14.3108 21.6274 14.3127 21.6613 14.3272C21.6924 14.3405 21.7339 14.3744 21.7625 14.4631L21.9053 14.417ZM21.0869 14.7158L20.938 14.6975C20.7601 16.1398 19.7569 17.3121 18.3541 18.2253C16.9529 19.1375 15.1741 19.7765 13.4943 20.1564L13.5273 20.3027L13.5604 20.449C15.2619 20.0642 17.0773 19.4145 18.5177 18.4767C19.9566 17.54 21.0425 16.3012 21.2358 14.7342L21.0869 14.7158ZM13.5273 20.3027L13.4942 20.1564C13.1904 20.2252 12.9974 20.4484 12.9862 20.692C12.9806 20.8135 13.0222 20.935 13.1143 21.0279C13.206 21.1204 13.3371 21.1741 13.4936 21.1839L13.5029 21.0342L13.5123 20.8845C13.4131 20.8783 13.357 20.8466 13.3273 20.8167C13.298 20.7871 13.2839 20.7489 13.2859 20.7057C13.2899 20.6198 13.3647 20.4933 13.5604 20.449L13.5273 20.3027ZM13.5029 21.0342L13.4936 21.1839C15.078 21.283 16.7808 20.8447 18.2049 20.2112C19.624 19.5798 20.795 18.7414 21.2972 18.016L21.1738 17.9307L21.0505 17.8453C20.5947 18.5036 19.4833 19.3141 18.0829 19.9371C16.6875 20.5579 15.0339 20.9796 13.5123 20.8845L13.5029 21.0342ZM21.1738 17.9307L21.2972 18.016C22.0989 16.8579 22.4312 15.5576 22.048 14.3709L21.9053 14.417L21.7625 14.4631C22.1083 15.5337 21.8178 16.7369 21.0505 17.8453L21.1738 17.9307ZM23.7402 7.66797V7.51797C23.0906 7.51797 22.5639 8.04468 22.5639 8.69434H22.7139H22.8639C22.8639 8.21036 23.2563 7.81797 23.7402 7.81797V7.66797ZM22.7139 8.69434L22.5639 8.69436C22.564 9.34391 23.0906 9.8707 23.7402 9.8707V9.7207V9.5707C23.2563 9.5707 22.8639 9.17826 22.8639 8.69431L22.7139 8.69434ZM23.7402 9.7207L23.7403 9.8707C24.3896 9.87046 24.9165 9.34383 24.9166 8.69436L24.7666 8.69434L24.6166 8.69431C24.6165 9.17807 24.224 9.57052 23.7402 9.5707L23.7402 9.7207ZM24.7666 8.69434H24.9166C24.9166 8.04475 24.3897 7.51822 23.7403 7.51797L23.7402 7.66797L23.7402 7.81797C24.2241 7.81815 24.6166 8.21055 24.6166 8.69434H24.7666Z" fill="#003D5F"></path>
</svg></svg></g></g><defs><clipPath id="SvgjsClipPath1194"><rect width="1000" height="1000" x="0" y="0" rx="350" ry="350"></rect></clipPath></defs></svg></g></svg>