<svg width="30" height="30" viewBox="0 0 30 30" fill="none" xmlns="http://www.w3.org/2000/svg">
<g clip-path="url(#clip0_348_135)">
<rect width="30" height="30" fill="#8B5CF6"/>
<path d="M15.0522 22.264C13.3242 22.264 12.0202 21.856 11.1402 21.04C10.2762 20.208 9.84419 18.952 9.84419 17.272V12.952H7.56419V9.808H9.84419V6.928L14.1162 5.92V9.808H17.0922V12.952H14.1162V17.104C14.1162 17.808 14.2762 18.28 14.5962 18.52C14.9162 18.744 15.3002 18.856 15.7482 18.856C16.0202 18.856 16.2522 18.84 16.4442 18.808C16.6522 18.76 16.8682 18.696 17.0922 18.616V21.904C16.7402 22.048 16.3882 22.144 16.0362 22.192C15.7002 22.24 15.3722 22.264 15.0522 22.264ZM19.0008 22V17.632H23.4408V22H19.0008Z" fill="#FAFAFA"/>
</g>
<defs>
<clipPath id="clip0_348_135">
<rect width="30" height="30" fill="white"/>
</clipPath>
</defs>
</svg>
